<svg fill="gray" xmlns="http://www.w3.org/2000/svg" viewBox="0 0 366 500" width="366" height="500"><path d="M212.438 339.733c6.888-7.987 11.997-15.017 15.761-21.838 2.84-5.147 4.914-10.175 6.409-15.405 3.808-13.323 3.858-27.958-4.889-51.761-1.219-3.317-2.609-6.812-4.106-10.442-2.659 1.486-5.318 2.972-8.31 10.442s-6.318 20.926-20.447 25.164-39.059-.739-44.923-11.557 7.339-27.477 20.921-36.893 27.543-11.59 41.504-13.763l-1.444-3.533c-5.86-14.486-11.007-29.266-12.53-42.34-3.046-26.147 8.407-45.471 26.67-49.784s43.337 6.387 62.674 39.56c4.101 7.036 7.945 15.084 11.361 23.796 4.707-13.494 9.414-26.987 19.338-37.948s25.065-19.387 34.671-12.89 13.678 27.915 10.668 42.672-13.101 22.85-22.225 26.67-17.282 3.364-22.669 4.445-8.006 3.697-10.624 6.314c6.215 25.915 8.143 53.97 2.593 77.623-3.216 13.707-8.943 25.936-16.271 36.757 3.988 21.457 7.975 42.913 4.518 46.881s-14.358-9.552-25.258-23.073c-11.528 10.568-24.358 19.08-36.776 25.667-14.947 7.929-29.297 13.07-43.34 16.78-13.64 12.612-26.132 23.114-32.168 37.589s-5.619 32.924-13.18 47.771-23.103 26.094-30.303 23.273-6.061-19.708-3.062-31.235 7.858-17.692 7.349-23.886-6.386-12.415-10.948-15.82-7.811-3.994-16.327-4.316-22.298-.378-32.207-4.46-15.942-12.192-20.002-20.52-6.149-16.875 6.223-16.818 39.202 8.719 62.23 9.334 42.25-6.816 62.552-15.319l.539-.226c12.315-11.821 23.639-23.063 32.42-32.819l3.611-4.095zm15.761-21.838c-8.976 1.583-17.952 3.166-29.566 6.893s-25.864 9.598-24.003 12.446 19.835 2.674 37.808 2.499c0 0 15.761-21.838 15.761-21.838zM62.574 166.617c-.251 6.763.482 14.294 2.182 23.614 1.706 9.354 4.385 20.509 7.445 32.368l.238.322c8.981 12.126 17.707 23.19 31.571 30.01s32.867 9.399 40.217 13.248 3.05 8.969-2.341 13.322-11.873 7.936-19.207 7.582-15.52-4.649-20.681-7.107-7.297-3.082-11.221-2.214-9.636 3.225-12.158 7.251-1.853 9.72-4.207 18.452-7.733 20.503-13.011 20.147-10.455-12.841-9.613-25.252 7.702-24.747 9.314-36.427-2.025-22.703-5.586-35.513c-6.991-6.92-13.651-14.905-19.664-24.96-4.996-8.354-9.547-18.138-12.589-28.903C11.959 178.268.653 183.979.028 180.211s9.428-17.016 19.482-30.263c-.463-9.616.527-19.68 3.535-29.955 5.19-17.729 16.389-36.083 29.361-51.644-.613-2.591-1.226-5.182-4.031-7.606s-7.801-4.68-11.838-10.128-7.115-14.09-3.608-25.008S46.524 1.493 54.544.122s13.971 9.082 15.922 19.607-.097 21.124-2.145 31.723c5.147-4.814 10.309-9.045 15.262-12.512 23.348-16.342 42.04-15.693 51.315-7.039s9.134 25.312-2.043 42.026c-5.589 8.357-13.936 16.727-22.601 24.676l-2.122 1.933c7.493 5.856 14.986 11.713 19.658 22.345s6.523 26.039-.829 31.508-23.908.997-30.76-6.307-3.999-17.443-3.095-23.432-.138-7.829-1.181-9.669c-2.188 1.983-4.265 3.908-6.176 5.766-13.715 13.338-18.932 23.244-21.451 33.445-.989 4.005-1.562 8.054-1.724 12.425z"/></svg>
